<svg width="24" height="24" viewBox="0 0 24 24" fill="none" xmlns="http://www.w3.org/2000/svg">
<g clip-path="url(#clip0_101_144)">
<path fill-rule="evenodd" clip-rule="evenodd" d="M5.44125 3C3.58687 3 3 3.58684 3 5.44123V18.5C3 20.3543 3.64561 21 5.5 21H18.5C20.3543 21 21 20.3544 21 18.5V12C21 11.4394 21.9396 11 22.5 11C23.0606 11 23.9461 11.4394 23.9461 12V18.5587C23.9461 21.5341 21.5341 23.9461 18.5588 23.9461H5.44126C2.4659 23.9461 0.053894 21.5341 0.053894 18.5588V5.44123C0.053894 2.46587 2.4659 0.0538635 5.44125 0.0538635H12C12.5604 0.0538635 13 0.939517 13 1.5C13 2.06049 12.5604 3 12 3H5.44125Z" fill="white"/>
<path d="M19.5 8C21.433 8 23 6.433 23 4.5C23 2.567 21.433 1 19.5 1C17.567 1 16 2.567 16 4.5C16 6.433 17.567 8 19.5 8Z" stroke="#FEFEFE" stroke-width="2"/>
<path d="M6.0303 16.7758H10.8545" stroke="white" stroke-width="3" stroke-linecap="round"/>
</g>
<defs>
<clipPath id="clip0_101_144">
<rect width="24" height="24" fill="white"/>
</clipPath>
</defs>
</svg>
