<svg width="23" height="23" viewBox="0 0 23 23" fill="none" xmlns="http://www.w3.org/2000/svg">
<g clip-path="url(#clip0_101_259)">
<path d="M20.3932 6.13338L11.2507 15.2758C10.3403 16.1862 7.63779 16.6079 7.03404 16.0042C6.43029 15.4004 6.84238 12.6979 7.75279 11.7875L16.9049 2.63544C17.1306 2.3892 17.4038 2.19127 17.7082 2.05355C18.0125 1.91584 18.3415 1.84119 18.6755 1.83415C19.0094 1.82713 19.3414 1.88783 19.6512 2.01261C19.961 2.1374 20.2424 2.3237 20.4782 2.56022C20.7141 2.79673 20.8996 3.07858 21.0235 3.38875C21.1474 3.69894 21.2073 4.031 21.1994 4.36493C21.1914 4.69886 21.1158 5.02775 20.9773 5.33169C20.8388 5.63562 20.6401 5.90835 20.3932 6.13338Z" stroke="white" stroke-width="2" stroke-linecap="round" stroke-linejoin="round"/>
<path d="M10.5417 3.83333H5.74999C4.73332 3.83333 3.75836 4.23719 3.03947 4.95609C2.32058 5.67498 1.91666 6.65 1.91666 7.66667V17.25C1.91666 18.2667 2.32058 19.2417 3.03947 19.9606C3.75836 20.6795 4.73332 21.0833 5.74999 21.0833H16.2917C18.4096 21.0833 19.1667 19.3583 19.1667 17.25V12.4583" stroke="white" stroke-width="2" stroke-linecap="round" stroke-linejoin="round"/>
</g>
<defs>
<clipPath id="clip0_101_259">
<rect width="23" height="23" fill="white"/>
</clipPath>
</defs>
</svg>
