<svg width="30" height="24" viewBox="0 0 30 24" fill="none" xmlns="http://www.w3.org/2000/svg">
<g clip-path="url(#clip0_101_132)">
<path d="M5.625 3.5625C5.625 4.59844 4.78594 5.4375 3.75 5.4375H1.875C0.839062 5.4375 0 4.59844 0 3.5625V1.6875C0 0.651562 0.839062 -0.1875 1.875 -0.1875H3.75C4.78594 -0.1875 5.625 0.651562 5.625 1.6875V3.5625Z" fill="white"/>
<path d="M5.625 12.9375C5.625 13.9725 4.78594 14.8125 3.75 14.8125H1.875C0.839062 14.8125 0 13.9725 0 12.9375V11.0625C0 10.0266 0.839062 9.1875 1.875 9.1875H3.75C4.78594 9.1875 5.625 10.0266 5.625 11.0625V12.9375Z" fill="white"/>
<path d="M5.625 22.3125C5.625 23.3475 4.78594 24.1875 3.75 24.1875H1.875C0.839062 24.1875 0 23.3475 0 22.3125V20.4375C0 19.4016 0.839062 18.5625 1.875 18.5625H3.75C4.78594 18.5625 5.625 19.4016 5.625 20.4375V22.3125Z" fill="white"/>
<path d="M30 3.5625C30 4.59844 29.1609 5.4375 28.125 5.4375H11.25C10.2141 5.4375 9.375 4.59844 9.375 3.5625V1.6875C9.375 0.651562 10.2141 -0.1875 11.25 -0.1875H28.125C29.1609 -0.1875 30 0.651562 30 1.6875V3.5625Z" fill="white"/>
<path d="M30 12.9375C30 13.9725 29.1609 14.8125 28.125 14.8125H11.25C10.2141 14.8125 9.375 13.9725 9.375 12.9375V11.0625C9.375 10.0266 10.2141 9.1875 11.25 9.1875H28.125C29.1609 9.1875 30 10.0266 30 11.0625V12.9375Z" fill="white"/>
<path d="M30 22.3125C30 23.3475 29.1609 24.1875 28.125 24.1875H11.25C10.2141 24.1875 9.375 23.3475 9.375 22.3125V20.4375C9.375 19.4016 10.2141 18.5625 11.25 18.5625H28.125C29.1609 18.5625 30 19.4016 30 20.4375V22.3125Z" fill="white"/>
</g>
<defs>
<clipPath id="clip0_101_132">
<rect width="30" height="24" fill="white"/>
</clipPath>
</defs>
</svg>
